<svg xmlns="http://www.w3.org/2000/svg" width="900" height="780" viewBox="0 0 900 780">
  <title>Eira side view</title>
  <rect width="100%" height="100%" fill="#f8fafc"/>
  <style>
    .title { font: 700 24px Arial, sans-serif; fill: #111827; }
    .label { font: 600 13px Arial, sans-serif; fill: #111827; }
    .small { font: 12px Arial, sans-serif; fill: #374151; }
    .dim { font: 12px Arial, sans-serif; fill: #2563eb; }
    .part { font: 11px Arial, sans-serif; fill: #111827; }
  </style>
<text x="40" y="42" class="title" text-anchor="start">Eira HDPE Panel Armchair - Side View</text>
<text x="40" y="66" class="small" text-anchor="start">Upright garden lounge posture: shallow seat rake and 10 degree back angle</text>
<line x1="70" y1="700" x2="820" y2="700" stroke="#94a3b8" stroke-width="1" stroke-dasharray="6 6" stroke-linecap="round"/>
<rect x="110.0" y="220.0" width="56.25" height="480.0" rx="3" fill="#4b5563" stroke="#111827" stroke-width="1.5"/>
<rect x="530.0" y="85.0" width="60.0" height="615.0" rx="3" fill="#4b5563" stroke="#111827" stroke-width="1.5"/>
<rect x="151.25" y="358.75" width="390.0" height="48.75" rx="3" fill="#4b5563" stroke="#111827" stroke-width="1.5"/>
<rect x="136.25" y="601.0" width="420.0" height="46.5" rx="3" fill="#4b5563" stroke="#111827" stroke-width="1.5"/>
<polygon points="119.0,220.0 560.0,231.25 558.5,201.25 117.5,190.0" fill="#4b5563" stroke="#111827" stroke-width="1.5"/>
<line x1="162.5" y1="370.0" x2="526.25" y2="385.0" stroke="#8b5e3c" stroke-width="18" stroke-linecap="round"/>
<line x1="173.75" y1="368.5" x2="217.25" y2="370.75" stroke="#a16207" stroke-width="5" stroke-linecap="round"/>
<line x1="232.25" y1="370.9" x2="275.75" y2="373.15" stroke="#a16207" stroke-width="5" stroke-linecap="round"/>
<line x1="290.75" y1="373.29999999999995" x2="334.25" y2="375.54999999999995" stroke="#a16207" stroke-width="5" stroke-linecap="round"/>
<line x1="349.25" y1="375.70000000000005" x2="392.75" y2="377.95000000000005" stroke="#a16207" stroke-width="5" stroke-linecap="round"/>
<line x1="407.75" y1="378.1" x2="451.25" y2="380.35" stroke="#a16207" stroke-width="5" stroke-linecap="round"/>
<line x1="466.25" y1="380.5" x2="509.75" y2="382.75" stroke="#a16207" stroke-width="5" stroke-linecap="round"/>
<polygon points="471.5,370.0 494.0,370.0 541.6082847912855,100.0 519.1082847912855,100.0" fill="#8b5e3c" stroke="#111827" stroke-width="1.5"/>
<polygon points="495.10828479128554,107.5 553.6082847912855,107.5 553.6082847912855,77.5 495.10828479128554,77.5" fill="#4b5563" stroke="#111827" stroke-width="1.5"/>
<circle cx="137.75" cy="621.25" r="4" fill="#334155" stroke="#020617" stroke-width="1"/>
<line x1="135.55" y1="621.25" x2="139.95" y2="621.25" stroke="#cbd5e1" stroke-width="1" stroke-linecap="round"/>
<circle cx="137.75" cy="392.5" r="4" fill="#334155" stroke="#020617" stroke-width="1"/>
<line x1="135.55" y1="392.5" x2="139.95" y2="392.5" stroke="#cbd5e1" stroke-width="1" stroke-linecap="round"/>
<circle cx="137.75" cy="235.0" r="4" fill="#334155" stroke="#020617" stroke-width="1"/>
<line x1="135.55" y1="235.0" x2="139.95" y2="235.0" stroke="#cbd5e1" stroke-width="1" stroke-linecap="round"/>
<circle cx="560.0" cy="625.0" r="4" fill="#334155" stroke="#020617" stroke-width="1"/>
<line x1="557.8" y1="625.0" x2="562.2" y2="625.0" stroke="#cbd5e1" stroke-width="1" stroke-linecap="round"/>
<circle cx="560.0" cy="377.5" r="4" fill="#334155" stroke="#020617" stroke-width="1"/>
<line x1="557.8" y1="377.5" x2="562.2" y2="377.5" stroke="#cbd5e1" stroke-width="1" stroke-linecap="round"/>
<circle cx="560.0" cy="231.25" r="4" fill="#334155" stroke="#020617" stroke-width="1"/>
<line x1="557.8" y1="231.25" x2="562.2" y2="231.25" stroke="#cbd5e1" stroke-width="1" stroke-linecap="round"/>
<circle cx="560.0" cy="122.5" r="4" fill="#334155" stroke="#020617" stroke-width="1"/>
<line x1="557.8" y1="122.5" x2="562.2" y2="122.5" stroke="#cbd5e1" stroke-width="1" stroke-linecap="round"/>
<line x1="110" y1="742" x2="597.5" y2="742" stroke="#2563eb" stroke-width="1.2" stroke-linecap="round"/>
<line x1="110" y1="736" x2="110" y2="748" stroke="#2563eb" stroke-width="1.2" stroke-linecap="round"/>
<line x1="597.5" y1="736" x2="597.5" y2="748" stroke="#2563eb" stroke-width="1.2" stroke-linecap="round"/>
<text x="353.75" y="732" class="dim" text-anchor="middle">overall depth 650 mm</text>
<line x1="647.5" y1="85.0" x2="647.5" y2="700" stroke="#2563eb" stroke-width="1.2" stroke-linecap="round"/>
<line x1="641.5" y1="85.0" x2="653.5" y2="85.0" stroke="#2563eb" stroke-width="1.2" stroke-linecap="round"/>
<line x1="641.5" y1="700" x2="653.5" y2="700" stroke="#2563eb" stroke-width="1.2" stroke-linecap="round"/>
<text x="661.5" y="392.5" class="dim" text-anchor="start" transform="rotate(-90 661.5 392.5)">height 820 mm</text>
<line x1="76" y1="370.0" x2="76" y2="700" stroke="#2563eb" stroke-width="1.2" stroke-linecap="round"/>
<line x1="70" y1="370.0" x2="82" y2="370.0" stroke="#2563eb" stroke-width="1.2" stroke-linecap="round"/>
<line x1="70" y1="700" x2="82" y2="700" stroke="#2563eb" stroke-width="1.2" stroke-linecap="round"/>
<text x="90" y="535.0" class="dim" text-anchor="start" transform="rotate(-90 90 535.0)">front seat 440 mm</text>
<text x="535" y="140" class="dim" text-anchor="start">10 deg back</text>
<text x="510" y="170" class="small" text-anchor="start">Back is relaxed, not Adirondack-deep</text>
<rect x="42" y="96" width="280" height="92" rx="8" fill="#ffffff" stroke="#cbd5e1" stroke-width="1.5" opacity="0.88"/>
<text x="60" y="126" class="label" text-anchor="start">One-piece mirrored side frame</text>
<text x="60" y="150" class="small" text-anchor="start">CNC cut windows</text>
<text x="60" y="174" class="small" text-anchor="start">Separate replaceable arm cap</text>
</svg>
