<svg xmlns="http://www.w3.org/2000/svg" width="930" height="610" viewBox="0 0 930 610">
  <title>25 mm cut sheet</title>
  <rect width="100%" height="100%" fill="#f8fafc"/>
  <style>
    .title { font: 700 24px Arial, sans-serif; fill: #111827; }
    .label { font: 600 13px Arial, sans-serif; fill: #111827; }
    .small { font: 12px Arial, sans-serif; fill: #374151; }
    .dim { font: 12px Arial, sans-serif; fill: #2563eb; }
    .part { font: 11px Arial, sans-serif; fill: #111827; }
  </style>
<text x="40" y="42" class="title" text-anchor="start">25 mm Sheet - CNC Cut Layout Concept</text>
<text x="40" y="66" class="small" text-anchor="start">Board reference: 2440 x 1220 mm. Layout is schematic, not final nesting.</text>
<rect x="40" y="90" width="829.6" height="414.8" rx="6" fill="#eef2f7" stroke="#cbd5e1" stroke-width="1.5"/>
<text x="857.6" y="492.8" class="dim" text-anchor="end">2440 x 1220</text>
<rect x="75" y="165.4" width="21.000000000000004" height="128.8" rx="2" fill="#4b5563" stroke="#111827" stroke-width="1.5"/>
<rect x="231.8" y="115" width="22.400000000000002" height="179.20000000000002" rx="2" fill="#4b5563" stroke="#111827" stroke-width="1.5"/>
<rect x="90.4" y="217.2" width="145.60000000000002" height="18.200000000000003" rx="2" fill="#4b5563" stroke="#111827" stroke-width="1.5"/>
<rect x="84.8" y="271.8" width="156.8" height="17.360000000000003" rx="2" fill="#4b5563" stroke="#111827" stroke-width="1.5"/>
<text x="164.60000000000002" y="301.20000000000005" class="part" text-anchor="middle">S01-L side frame</text>
<rect x="300" y="165.4" width="21.000000000000004" height="128.8" rx="2" fill="#4b5563" stroke="#111827" stroke-width="1.5"/>
<rect x="456.8" y="115" width="22.400000000000002" height="179.20000000000002" rx="2" fill="#4b5563" stroke="#111827" stroke-width="1.5"/>
<rect x="315.4" y="217.2" width="145.60000000000002" height="18.200000000000003" rx="2" fill="#4b5563" stroke="#111827" stroke-width="1.5"/>
<rect x="309.8" y="271.8" width="156.8" height="17.360000000000003" rx="2" fill="#4b5563" stroke="#111827" stroke-width="1.5"/>
<text x="389.6" y="301.20000000000005" class="part" text-anchor="middle">S01-R side frame</text>
<rect x="550" y="125" width="200.60000000000002" height="27.880000000000003" rx="3" fill="#64748b" stroke="#111827" stroke-width="1.5"/>
<text x="556" y="141.94" class="part" text-anchor="start">A01 arm cap</text>
<rect x="550" y="166.88" width="200.60000000000002" height="27.880000000000003" rx="3" fill="#64748b" stroke="#111827" stroke-width="1.5"/>
<text x="556" y="183.82" class="part" text-anchor="start">A01 arm cap</text>
<rect x="550" y="208.76" width="207.4" height="30.6" rx="3" fill="#64748b" stroke="#111827" stroke-width="1.5"/>
<text x="556" y="227.06" class="part" text-anchor="start">C01 front rail</text>
<rect x="550" y="253.35999999999999" width="207.4" height="28.900000000000002" rx="3" fill="#64748b" stroke="#111827" stroke-width="1.5"/>
<text x="556" y="270.81" class="part" text-anchor="start">C02 rear rail</text>
<rect x="550" y="296.26" width="207.4" height="30.6" rx="3" fill="#64748b" stroke="#111827" stroke-width="1.5"/>
<text x="556" y="314.56" class="part" text-anchor="start">B01 back top rail</text>
<rect x="550" y="340.86" width="207.4" height="27.200000000000003" rx="3" fill="#64748b" stroke="#111827" stroke-width="1.5"/>
<text x="556" y="357.46000000000004" class="part" text-anchor="start">B02 back bottom rail</text>
<rect x="550" y="382.06" width="207.4" height="23.8" rx="3" fill="#64748b" stroke="#111827" stroke-width="1.5"/>
<text x="556" y="396.96" class="part" text-anchor="start">C03/C04 lower stretchers</text>
<polygon points="550,454 594,454 550,410" fill="#64748b" stroke="#111827" stroke-width="1.5"/>
<polygon points="620,454 664,454 620,410" fill="#64748b" stroke="#111827" stroke-width="1.5"/>
<polygon points="550,524 594,524 550,480" fill="#64748b" stroke="#111827" stroke-width="1.5"/>
<polygon points="620,524 664,524 620,480" fill="#64748b" stroke="#111827" stroke-width="1.5"/>
<text x="550" y="560" class="part" text-anchor="start">G01 triangular corner gussets x4</text>
<text x="40" y="545" class="label" text-anchor="start">25 mm parts: side frames, arm caps, cross rails, back rails, corner gussets, spacer blocks.</text>
<text x="40" y="568" class="small" text-anchor="start">Keep high-load holes at least 62 mm from vulnerable free edges where possible.</text>
</svg>
